G04*
G04 #@! TF.GenerationSoftware,Altium Limited,Altium Designer,23.4.1 (23)*
G04*
G04 Layer_Color=32768*
%FSLAX44Y44*%
%MOMM*%
G71*
G04*
G04 #@! TF.SameCoordinates,962042ED-4943-4C1F-BA74-C7D69658BEBC*
G04*
G04*
G04 #@! TF.FilePolarity,Positive*
G04*
G01*
G75*
%ADD12C,0.1000*%
%ADD41C,0.0500*%
D12*
X689000Y37750D02*
X782250D01*
Y217250D01*
X689000D02*
X782250D01*
X689000Y37750D02*
Y217250D01*
X730000Y657500D02*
X740000D01*
X735000Y652500D02*
Y662500D01*
X732500Y882500D02*
X742500D01*
X737500Y877500D02*
Y887500D01*
D41*
X781000Y882500D02*
G03*
X781000Y882500I-43500J0D01*
G01*
X130000Y52500D02*
Y342500D01*
X190000D01*
Y52500D02*
Y342500D01*
X130000Y52500D02*
X190000D01*
X130000Y347500D02*
Y637500D01*
X190000D01*
Y347500D02*
Y637500D01*
X130000Y347500D02*
X190000D01*
Y642500D02*
Y932500D01*
X130000Y642500D02*
X190000D01*
X130000D02*
Y932500D01*
X190000D01*
X31500Y439200D02*
Y545800D01*
X118500D01*
Y439200D02*
Y545800D01*
X31500Y439200D02*
X118500D01*
X788500Y454200D02*
Y560800D01*
X701500Y454200D02*
X788500D01*
X701500D02*
Y560800D01*
X788500D01*
M02*
