G04*
G04 #@! TF.GenerationSoftware,Altium Limited,Altium Designer,23.4.1 (23)*
G04*
G04 Layer_Physical_Order=1*
G04 Layer_Color=255*
%FSLAX44Y44*%
%MOMM*%
G71*
G04*
G04 #@! TF.SameCoordinates,962042ED-4943-4C1F-BA74-C7D69658BEBC*
G04*
G04*
G04 #@! TF.FilePolarity,Positive*
G04*
G01*
G75*
%ADD23C,1.3000*%
%ADD24R,1.3000X1.3000*%
%ADD27C,1.6000*%
%ADD28R,1.6000X1.6000*%
%ADD29C,0.5080*%
%ADD30C,1.5000*%
%ADD31C,4.0000*%
%ADD32C,1.9500*%
%ADD33C,1.4000*%
%ADD34R,1.7000X1.7000*%
%ADD35C,1.7000*%
%ADD36C,1.5900*%
%ADD37R,1.6500X1.6500*%
%ADD38C,1.6500*%
G36*
X82932Y465670D02*
X82788Y465203D01*
Y464664D01*
X82932Y464053D01*
X83219Y463371D01*
X83651Y462616D01*
X84225Y461790D01*
X84944Y460892D01*
X86812Y458881D01*
X83219Y455288D01*
X82178Y456294D01*
X80310Y457875D01*
X79484Y458449D01*
X78729Y458881D01*
X78047Y459168D01*
X77436Y459312D01*
X76897D01*
X76431Y459168D01*
X76035Y458881D01*
X83219Y466065D01*
X82932Y465670D01*
D02*
G37*
G36*
X239735Y446604D02*
X239274Y446046D01*
X238868Y445470D01*
X238516Y444877D01*
X238218Y444266D01*
X237974Y443637D01*
X237784Y442990D01*
X237648Y442326D01*
X237567Y441643D01*
X237540Y440943D01*
X232460D01*
X232433Y441643D01*
X232352Y442326D01*
X232216Y442990D01*
X232026Y443637D01*
X231782Y444266D01*
X231484Y444877D01*
X231132Y445470D01*
X230726Y446046D01*
X230265Y446604D01*
X229750Y447144D01*
X240250D01*
X239735Y446604D01*
D02*
G37*
G36*
X170496Y365984D02*
X170004Y365449D01*
X169566Y364882D01*
X169179Y364282D01*
X168846Y363649D01*
X168565Y362983D01*
X168337Y362285D01*
X168161Y361553D01*
X168038Y360788D01*
X167967Y359990D01*
X167950Y359160D01*
X160079Y367030D01*
X160910Y367047D01*
X161708Y367118D01*
X162473Y367241D01*
X163204Y367417D01*
X163903Y367645D01*
X164569Y367926D01*
X165202Y368260D01*
X165802Y368646D01*
X166369Y369084D01*
X166904Y369576D01*
X170496Y365984D01*
D02*
G37*
G36*
X155542Y352498D02*
X154816Y352966D01*
X153375Y353753D01*
X152659Y354074D01*
X151946Y354344D01*
X151237Y354566D01*
X150531Y354738D01*
X149827Y354861D01*
X149128Y354935D01*
X148431Y354960D01*
X147338Y360040D01*
X148084Y360074D01*
X148797Y360175D01*
X149477Y360343D01*
X150125Y360578D01*
X150741Y360881D01*
X151323Y361252D01*
X151874Y361689D01*
X152392Y362194D01*
X152877Y362766D01*
X153330Y363406D01*
X155542Y352498D01*
D02*
G37*
G36*
X99378Y343286D02*
X98920Y342795D01*
X98511Y342286D01*
X98151Y341759D01*
X97840Y341214D01*
X97578Y340651D01*
X97364Y340071D01*
X97200Y339472D01*
X97084Y338856D01*
X97017Y338222D01*
X97000Y337570D01*
X90070Y344500D01*
X90722Y344518D01*
X91356Y344584D01*
X91972Y344700D01*
X92571Y344864D01*
X93151Y345078D01*
X93714Y345340D01*
X94259Y345651D01*
X94786Y346011D01*
X95295Y346420D01*
X95786Y346878D01*
X99378Y343286D01*
D02*
G37*
G36*
X94452Y332027D02*
X94050Y331532D01*
X93696Y331014D01*
X93390Y330475D01*
X93130Y329913D01*
X92918Y329330D01*
X92752Y328725D01*
X92634Y328097D01*
X92564Y327448D01*
X92540Y326777D01*
X87460D01*
X87436Y327448D01*
X87366Y328097D01*
X87248Y328725D01*
X87082Y329330D01*
X86870Y329913D01*
X86610Y330475D01*
X86304Y331014D01*
X85950Y331532D01*
X85548Y332027D01*
X85100Y332501D01*
X94900D01*
X94452Y332027D01*
D02*
G37*
G36*
X166277Y335910D02*
X166891Y335396D01*
X167519Y334942D01*
X168161Y334549D01*
X168816Y334216D01*
X169486Y333944D01*
X170169Y333732D01*
X170867Y333581D01*
X171578Y333490D01*
X172303Y333460D01*
Y328380D01*
X171578Y328350D01*
X170867Y328259D01*
X170169Y328108D01*
X169486Y327896D01*
X168816Y327624D01*
X168161Y327291D01*
X167519Y326898D01*
X166891Y326444D01*
X166277Y325930D01*
X165677Y325355D01*
Y336485D01*
X166277Y335910D01*
D02*
G37*
G36*
X104975Y281553D02*
X106847Y279966D01*
X107674Y279388D01*
X108428Y278954D01*
X109110Y278664D01*
X109720Y278517D01*
X110258Y278514D01*
X110722Y278655D01*
X111115Y278939D01*
X103961Y271785D01*
X104245Y272178D01*
X104386Y272642D01*
X104383Y273180D01*
X104236Y273790D01*
X103946Y274472D01*
X103512Y275226D01*
X102934Y276054D01*
X102212Y276953D01*
X100338Y278969D01*
X103931Y282562D01*
X104975Y281553D01*
D02*
G37*
G36*
X99378Y163286D02*
X98920Y162795D01*
X98511Y162286D01*
X98151Y161759D01*
X97840Y161214D01*
X97578Y160651D01*
X97364Y160071D01*
X97200Y159472D01*
X97084Y158856D01*
X97017Y158222D01*
X97000Y157570D01*
X90070Y164500D01*
X90722Y164517D01*
X91356Y164584D01*
X91972Y164700D01*
X92571Y164864D01*
X93151Y165078D01*
X93714Y165340D01*
X94259Y165651D01*
X94786Y166011D01*
X95295Y166420D01*
X95786Y166878D01*
X99378Y163286D01*
D02*
G37*
G36*
X229138Y163992D02*
X229678Y163567D01*
X230244Y163193D01*
X230835Y162870D01*
X231453Y162598D01*
X232096Y162376D01*
X232764Y162206D01*
X233459Y162086D01*
X234179Y162017D01*
X234925Y162000D01*
X227500Y154575D01*
X227482Y155321D01*
X227414Y156041D01*
X227294Y156736D01*
X227124Y157404D01*
X226902Y158048D01*
X226630Y158665D01*
X226307Y159256D01*
X225933Y159822D01*
X225508Y160362D01*
X225032Y160876D01*
X228624Y164468D01*
X229138Y163992D01*
D02*
G37*
G36*
X94452Y152027D02*
X94050Y151532D01*
X93696Y151014D01*
X93390Y150475D01*
X93130Y149913D01*
X92918Y149330D01*
X92752Y148725D01*
X92634Y148097D01*
X92564Y147448D01*
X92540Y146777D01*
X87460D01*
X87436Y147448D01*
X87366Y148097D01*
X87248Y148725D01*
X87082Y149330D01*
X86870Y149913D01*
X86610Y150475D01*
X86304Y151014D01*
X85950Y151532D01*
X85548Y152027D01*
X85100Y152501D01*
X94900D01*
X94452Y152027D01*
D02*
G37*
G36*
X734378Y133286D02*
X733920Y132795D01*
X733511Y132286D01*
X733151Y131759D01*
X732840Y131214D01*
X732578Y130651D01*
X732364Y130071D01*
X732200Y129472D01*
X732084Y128856D01*
X732018Y128222D01*
X732000Y127570D01*
X725070Y134500D01*
X725722Y134517D01*
X726356Y134584D01*
X726972Y134700D01*
X727571Y134864D01*
X728151Y135078D01*
X728714Y135340D01*
X729259Y135651D01*
X729786Y136011D01*
X730295Y136420D01*
X730786Y136878D01*
X734378Y133286D01*
D02*
G37*
G36*
X104975Y101553D02*
X106847Y99966D01*
X107674Y99388D01*
X108428Y98954D01*
X109110Y98664D01*
X109720Y98517D01*
X110258Y98514D01*
X110722Y98655D01*
X111115Y98939D01*
X103961Y91785D01*
X104245Y92178D01*
X104386Y92642D01*
X104383Y93180D01*
X104236Y93790D01*
X103946Y94472D01*
X103512Y95226D01*
X102934Y96053D01*
X102212Y96953D01*
X100338Y98969D01*
X103931Y102562D01*
X104975Y101553D01*
D02*
G37*
G36*
X116582Y92820D02*
X116438Y92353D01*
Y91814D01*
X116582Y91203D01*
X116869Y90521D01*
X117301Y89766D01*
X117875Y88940D01*
X118594Y88042D01*
X120462Y86031D01*
X116869Y82438D01*
X115828Y83444D01*
X113960Y85025D01*
X113134Y85599D01*
X112379Y86031D01*
X111697Y86318D01*
X111086Y86461D01*
X110547D01*
X110080Y86318D01*
X109685Y86031D01*
X116869Y93215D01*
X116582Y92820D01*
D02*
G37*
G36*
X154323Y58515D02*
X153723Y59090D01*
X153109Y59604D01*
X152481Y60058D01*
X151839Y60451D01*
X151184Y60784D01*
X150514Y61056D01*
X149831Y61268D01*
X149133Y61419D01*
X148422Y61510D01*
X147697Y61540D01*
Y66620D01*
X148422Y66650D01*
X149133Y66741D01*
X149831Y66892D01*
X150514Y67104D01*
X151184Y67376D01*
X151839Y67709D01*
X152481Y68102D01*
X153109Y68556D01*
X153723Y69070D01*
X154323Y69645D01*
Y58515D01*
D02*
G37*
G36*
X162570Y637498D02*
X162661Y636787D01*
X162812Y636090D01*
X163024Y635406D01*
X163296Y634736D01*
X163629Y634081D01*
X164022Y633439D01*
X164476Y632811D01*
X164990Y632197D01*
X165565Y631597D01*
X154435D01*
X155010Y632197D01*
X155524Y632811D01*
X155978Y633439D01*
X156371Y634081D01*
X156704Y634736D01*
X156976Y635406D01*
X157188Y636090D01*
X157339Y636787D01*
X157430Y637498D01*
X157460Y638223D01*
X162540D01*
X162570Y637498D01*
D02*
G37*
G36*
X164990Y619643D02*
X164476Y619029D01*
X164022Y618401D01*
X163629Y617759D01*
X163296Y617104D01*
X163024Y616434D01*
X162812Y615751D01*
X162661Y615053D01*
X162570Y614342D01*
X162540Y613617D01*
X157460D01*
X157430Y614342D01*
X157339Y615053D01*
X157188Y615751D01*
X156976Y616434D01*
X156704Y617104D01*
X156371Y617759D01*
X155978Y618401D01*
X155524Y619029D01*
X155010Y619643D01*
X154435Y620243D01*
X165565D01*
X164990Y619643D01*
D02*
G37*
G36*
X99975Y621553D02*
X101847Y619966D01*
X102674Y619388D01*
X103428Y618954D01*
X104110Y618664D01*
X104720Y618517D01*
X105258Y618514D01*
X105722Y618655D01*
X106115Y618939D01*
X98961Y611785D01*
X99245Y612178D01*
X99386Y612643D01*
X99383Y613180D01*
X99236Y613790D01*
X98946Y614472D01*
X98512Y615226D01*
X97934Y616054D01*
X97212Y616953D01*
X95338Y618969D01*
X98931Y622562D01*
X99975Y621553D01*
D02*
G37*
G36*
X77561Y479105D02*
X77626Y478304D01*
X77733Y477597D01*
X77882Y476985D01*
X78075Y476467D01*
X78311Y476043D01*
X78589Y475713D01*
X78910Y475477D01*
X79274Y475336D01*
X79681Y475289D01*
X70319D01*
X70726Y475336D01*
X71090Y475477D01*
X71411Y475713D01*
X71689Y476043D01*
X71925Y476467D01*
X72118Y476985D01*
X72267Y477597D01*
X72374Y478304D01*
X72439Y479105D01*
X72460Y480000D01*
X77540D01*
X77561Y479105D01*
D02*
G37*
G36*
X92460Y676777D02*
X92436Y677448D01*
X92366Y678097D01*
X92248Y678725D01*
X92082Y679330D01*
X91870Y679913D01*
X91610Y680475D01*
X91304Y681014D01*
X90950Y681532D01*
X90548Y682027D01*
X90100Y682501D01*
X99900D01*
X99452Y682027D01*
X99050Y681532D01*
X98696Y681014D01*
X98390Y680475D01*
X98130Y679913D01*
X97918Y679330D01*
X97752Y678725D01*
X97634Y678097D01*
X97564Y677448D01*
X97540Y676777D01*
X92460D01*
D02*
G37*
G36*
X157460Y641777D02*
X157430Y642502D01*
X157339Y643213D01*
X157188Y643911D01*
X156976Y644594D01*
X156704Y645264D01*
X156371Y645919D01*
X155978Y646561D01*
X155524Y647189D01*
X155010Y647803D01*
X154435Y648403D01*
X165565D01*
X164990Y647803D01*
X164476Y647189D01*
X164022Y646561D01*
X163629Y645919D01*
X163296Y645264D01*
X163024Y644594D01*
X162812Y643911D01*
X162661Y643213D01*
X162570Y642502D01*
X162540Y641777D01*
X157460D01*
D02*
G37*
G36*
X104378Y693286D02*
X103920Y692795D01*
X103511Y692286D01*
X103151Y691759D01*
X102840Y691214D01*
X102578Y690651D01*
X102364Y690071D01*
X102200Y689472D01*
X102084Y688856D01*
X102017Y688222D01*
X102000Y687570D01*
X95070Y694500D01*
X95722Y694518D01*
X96356Y694584D01*
X96972Y694700D01*
X97571Y694864D01*
X98151Y695078D01*
X98714Y695340D01*
X99259Y695651D01*
X99786Y696011D01*
X100295Y696420D01*
X100786Y696878D01*
X104378Y693286D01*
D02*
G37*
G36*
X171247Y916310D02*
X170561Y916287D01*
X169868Y916220D01*
X169167Y916108D01*
X168457Y915951D01*
X167740Y915749D01*
X167015Y915503D01*
X165539Y914875D01*
X164790Y914494D01*
X164032Y914069D01*
X166931Y924815D01*
X167335Y924164D01*
X167778Y923582D01*
X168259Y923068D01*
X168778Y922623D01*
X169337Y922246D01*
X169934Y921938D01*
X170569Y921698D01*
X171243Y921527D01*
X171955Y921424D01*
X172706Y921390D01*
X171247Y916310D01*
D02*
G37*
G36*
X724452Y877027D02*
X724050Y876532D01*
X723696Y876014D01*
X723390Y875475D01*
X723130Y874913D01*
X722918Y874330D01*
X722752Y873725D01*
X722634Y873097D01*
X722564Y872448D01*
X722540Y871777D01*
X717460D01*
X717436Y872448D01*
X717366Y873097D01*
X717248Y873725D01*
X717082Y874330D01*
X716870Y874913D01*
X716610Y875475D01*
X716304Y876014D01*
X715950Y876532D01*
X715548Y877027D01*
X715100Y877501D01*
X724900D01*
X724452Y877027D01*
D02*
G37*
G36*
X719662Y793969D02*
X718653Y792925D01*
X717066Y791053D01*
X716488Y790226D01*
X716054Y789472D01*
X715764Y788790D01*
X715617Y788180D01*
X715614Y787643D01*
X715755Y787178D01*
X716039Y786785D01*
X708885Y793939D01*
X709278Y793655D01*
X709743Y793514D01*
X710280Y793517D01*
X710890Y793664D01*
X711572Y793954D01*
X712326Y794388D01*
X713154Y794966D01*
X714053Y795688D01*
X716069Y797562D01*
X719662Y793969D01*
D02*
G37*
G36*
X714197Y780980D02*
X713766Y780827D01*
X713385Y780573D01*
X713054Y780218D01*
X712775Y779761D01*
X712546Y779202D01*
X712369Y778541D01*
X712242Y777779D01*
X712165Y776916D01*
X712140Y775950D01*
X707060D01*
X707035Y776916D01*
X706958Y777779D01*
X706831Y778541D01*
X706654Y779202D01*
X706425Y779761D01*
X706146Y780218D01*
X705815Y780573D01*
X705434Y780827D01*
X705003Y780980D01*
X704520Y781031D01*
X714680D01*
X714197Y780980D01*
D02*
G37*
G36*
X244968Y758876D02*
X244492Y758362D01*
X244067Y757822D01*
X243693Y757256D01*
X243370Y756665D01*
X243098Y756048D01*
X242876Y755405D01*
X242706Y754736D01*
X242586Y754041D01*
X242518Y753321D01*
X242500Y752575D01*
X235075Y760000D01*
X235821Y760017D01*
X236541Y760086D01*
X237236Y760206D01*
X237905Y760376D01*
X238547Y760598D01*
X239165Y760870D01*
X239756Y761193D01*
X240322Y761567D01*
X240862Y761992D01*
X241376Y762468D01*
X244968Y758876D01*
D02*
G37*
G36*
X229644Y747250D02*
X229104Y747765D01*
X228546Y748226D01*
X227970Y748632D01*
X227377Y748984D01*
X226766Y749283D01*
X226137Y749526D01*
X225490Y749716D01*
X224825Y749852D01*
X224143Y749933D01*
X223443Y749960D01*
Y755040D01*
X224143Y755067D01*
X224825Y755148D01*
X225490Y755284D01*
X226137Y755474D01*
X226766Y755717D01*
X227377Y756016D01*
X227970Y756368D01*
X228546Y756774D01*
X229104Y757235D01*
X229644Y757750D01*
Y747250D01*
D02*
G37*
G36*
X737574Y695356D02*
X737676Y694610D01*
X737847Y693873D01*
X738086Y693146D01*
X738392Y692427D01*
X738768Y691717D01*
X739211Y691017D01*
X739722Y690325D01*
X740302Y689643D01*
X740950Y688970D01*
X729050D01*
X729698Y689643D01*
X730278Y690325D01*
X730789Y691017D01*
X731232Y691717D01*
X731608Y692427D01*
X731914Y693146D01*
X732153Y693873D01*
X732324Y694610D01*
X732426Y695356D01*
X732460Y696112D01*
X737540D01*
X737574Y695356D01*
D02*
G37*
G36*
X734915Y674400D02*
X733981Y674383D01*
X733089Y674310D01*
X732238Y674183D01*
X731429Y674001D01*
X730662Y673765D01*
X729937Y673474D01*
X729254Y673128D01*
X728612Y672727D01*
X728012Y672272D01*
X727454Y671762D01*
X723862Y675354D01*
X724372Y675912D01*
X724827Y676512D01*
X725228Y677154D01*
X725574Y677837D01*
X725865Y678562D01*
X726101Y679329D01*
X726283Y680138D01*
X726410Y680989D01*
X726483Y681881D01*
X726500Y682815D01*
X734915Y674400D01*
D02*
G37*
D23*
X54600Y612500D02*
D03*
X59600Y272500D02*
D03*
Y92500D02*
D03*
X760400Y787500D02*
D03*
D24*
X105400Y612500D02*
D03*
X110400Y272500D02*
D03*
Y92500D02*
D03*
X709600Y787500D02*
D03*
D27*
X735000Y427230D02*
D03*
D28*
Y227770D02*
D03*
D29*
X693920Y641820D02*
X735000Y682900D01*
X693920Y426080D02*
Y641820D01*
X735000Y682900D02*
Y707500D01*
X747500Y150000D02*
Y181548D01*
X636580Y260165D02*
Y317201D01*
X709600Y787500D02*
X720000Y797900D01*
X636580Y317201D02*
X650299Y330920D01*
X666665D02*
X702420Y366675D01*
X650299Y330920D02*
X666665D01*
X720000Y797900D02*
Y882500D01*
X693920Y426080D02*
X702420Y417580D01*
X725000Y127500D02*
X747500Y150000D01*
X709600Y732900D02*
X735000Y707500D01*
X702420Y366675D02*
Y417580D01*
X714048Y215000D02*
X747500Y181548D01*
X636580Y260165D02*
X681745Y215000D01*
X714048D01*
X709600Y732900D02*
Y787500D01*
X235000Y434080D02*
Y452500D01*
X158420Y357500D02*
X235000Y434080D01*
X132500Y347500D02*
X142500Y357500D01*
X158420D01*
X90000Y337500D02*
X100000Y347500D01*
X132500D01*
X90000Y292900D02*
Y337500D01*
Y292900D02*
X110400Y272500D01*
X95000Y622900D02*
X105400Y612500D01*
X95000Y622900D02*
Y687500D01*
X160000Y752500D01*
X235000D01*
X264000Y781500D01*
Y848000D01*
X193150Y918850D02*
X264000Y848000D01*
X162070Y918850D02*
X193150D01*
X138820Y64080D02*
X160000D01*
X110400Y92500D02*
X138820Y64080D01*
X90000Y112900D02*
X110400Y92500D01*
X90000Y112900D02*
Y157500D01*
X110000Y177500D01*
X212000D01*
X235000Y154500D01*
X273000Y423000D02*
Y543000D01*
X160000Y330920D02*
X180920D01*
X273000Y423000D01*
X75000Y467100D02*
X89600Y452500D01*
X82500Y487500D02*
X101500D01*
X160000Y625920D02*
Y654080D01*
Y546000D02*
Y625920D01*
X218543Y563395D02*
X252605D01*
X107648Y452500D02*
X218543Y563395D01*
X101500Y487500D02*
X160000Y546000D01*
X89600Y452500D02*
X107648D01*
X75000Y480000D02*
X82500Y487500D01*
X252605Y563395D02*
X273000Y543000D01*
X75000Y467100D02*
Y480000D01*
D30*
X660000Y677500D02*
D03*
Y905500D02*
D03*
X235000Y752500D02*
D03*
Y830500D02*
D03*
Y530500D02*
D03*
Y452500D02*
D03*
X660000Y605500D02*
D03*
Y377500D02*
D03*
X235000Y232500D02*
D03*
Y154500D02*
D03*
X660000Y307500D02*
D03*
Y79500D02*
D03*
D31*
X802500Y30000D02*
D03*
X30000Y937500D02*
D03*
Y30000D02*
D03*
X802500Y937500D02*
D03*
D32*
X762500Y197500D02*
D03*
X709500D02*
D03*
Y57500D02*
D03*
X762500D02*
D03*
D33*
X725000Y167500D02*
D03*
Y127500D02*
D03*
Y107500D02*
D03*
Y87500D02*
D03*
X720000Y882500D02*
D03*
X755000D02*
D03*
X95000Y687500D02*
D03*
Y737500D02*
D03*
X90000Y337500D02*
D03*
Y387500D02*
D03*
Y157500D02*
D03*
Y207500D02*
D03*
D34*
X735000Y632100D02*
D03*
D35*
Y657500D02*
D03*
Y682900D02*
D03*
D36*
X160000Y330920D02*
D03*
Y64080D02*
D03*
Y625920D02*
D03*
Y359080D02*
D03*
Y654080D02*
D03*
Y920920D02*
D03*
D37*
X75000Y467100D02*
D03*
X745000Y532900D02*
D03*
D38*
X75000Y517900D02*
D03*
X745000Y482100D02*
D03*
M02*
