G04*
G04 #@! TF.GenerationSoftware,Altium Limited,Altium Designer,23.4.1 (23)*
G04*
G04 Layer_Color=16711935*
%FSLAX44Y44*%
%MOMM*%
G71*
G04*
G04 #@! TF.SameCoordinates,962042ED-4943-4C1F-BA74-C7D69658BEBC*
G04*
G04*
G04 #@! TF.FilePolarity,Positive*
G04*
G01*
G75*
%ADD10C,0.2000*%
G36*
X71725Y612491D02*
X71799Y612482D01*
X71882Y612472D01*
X71975Y612454D01*
X72077Y612435D01*
X72298Y612380D01*
X72530Y612287D01*
X72650Y612232D01*
X72761Y612167D01*
X72872Y612084D01*
X72983Y612001D01*
X72992Y611992D01*
X73010Y611973D01*
X73038Y611945D01*
X73066Y611908D01*
X73112Y611862D01*
X73158Y611797D01*
X73214Y611733D01*
X73269Y611650D01*
X73325Y611557D01*
X73380Y611465D01*
X73482Y611243D01*
X73565Y610984D01*
X73593Y610845D01*
X73611Y610697D01*
X72825Y610596D01*
Y610605D01*
X72816Y610623D01*
X72807Y610660D01*
X72798Y610706D01*
X72789Y610762D01*
X72770Y610827D01*
X72724Y610965D01*
X72659Y611132D01*
X72576Y611289D01*
X72483Y611437D01*
X72372Y611566D01*
X72354Y611576D01*
X72317Y611613D01*
X72243Y611659D01*
X72151Y611705D01*
X72040Y611760D01*
X71901Y611807D01*
X71744Y611844D01*
X71577Y611853D01*
X71522D01*
X71485Y611844D01*
X71383Y611834D01*
X71254Y611807D01*
X71106Y611760D01*
X70949Y611696D01*
X70792Y611603D01*
X70644Y611474D01*
X70625Y611455D01*
X70579Y611400D01*
X70523Y611317D01*
X70449Y611206D01*
X70375Y611067D01*
X70320Y610910D01*
X70274Y610725D01*
X70255Y610522D01*
Y610512D01*
Y610494D01*
Y610466D01*
X70265Y610429D01*
X70274Y610327D01*
X70301Y610207D01*
X70338Y610059D01*
X70403Y609911D01*
X70496Y609763D01*
X70616Y609625D01*
X70634Y609606D01*
X70680Y609569D01*
X70754Y609514D01*
X70856Y609449D01*
X70986Y609384D01*
X71143Y609329D01*
X71318Y609292D01*
X71513Y609273D01*
X71596D01*
X71660Y609283D01*
X71744Y609292D01*
X71836Y609310D01*
X71947Y609329D01*
X72067Y609357D01*
X71975Y608663D01*
X71929D01*
X71892Y608672D01*
X71771D01*
X71670Y608654D01*
X71550Y608635D01*
X71411Y608608D01*
X71254Y608562D01*
X71106Y608497D01*
X70949Y608414D01*
X70939D01*
X70930Y608404D01*
X70884Y608367D01*
X70819Y608303D01*
X70745Y608219D01*
X70671Y608099D01*
X70606Y607961D01*
X70560Y607803D01*
X70542Y607711D01*
Y607609D01*
Y607600D01*
Y607591D01*
Y607535D01*
X70560Y607461D01*
X70579Y607360D01*
X70616Y607249D01*
X70662Y607128D01*
X70736Y607008D01*
X70838Y606897D01*
X70847Y606888D01*
X70893Y606851D01*
X70958Y606805D01*
X71041Y606749D01*
X71152Y606703D01*
X71281Y606657D01*
X71429Y606620D01*
X71596Y606611D01*
X71670D01*
X71753Y606629D01*
X71864Y606648D01*
X71984Y606685D01*
X72104Y606731D01*
X72234Y606805D01*
X72354Y606897D01*
X72363Y606907D01*
X72400Y606953D01*
X72456Y607018D01*
X72520Y607110D01*
X72585Y607230D01*
X72650Y607378D01*
X72705Y607554D01*
X72742Y607757D01*
X73528Y607618D01*
Y607609D01*
X73519Y607581D01*
X73510Y607545D01*
X73500Y607489D01*
X73482Y607424D01*
X73454Y607350D01*
X73399Y607175D01*
X73306Y606971D01*
X73195Y606768D01*
X73057Y606574D01*
X72881Y606398D01*
X72872Y606389D01*
X72853Y606380D01*
X72825Y606361D01*
X72789Y606333D01*
X72742Y606296D01*
X72678Y606259D01*
X72613Y606222D01*
X72530Y606176D01*
X72345Y606102D01*
X72132Y606028D01*
X71882Y605982D01*
X71753Y605964D01*
X71522D01*
X71420Y605973D01*
X71300Y605991D01*
X71152Y606019D01*
X70986Y606065D01*
X70819Y606121D01*
X70653Y606195D01*
X70644D01*
X70634Y606204D01*
X70579Y606232D01*
X70496Y606287D01*
X70403Y606352D01*
X70292Y606444D01*
X70181Y606546D01*
X70070Y606666D01*
X69978Y606805D01*
X69969Y606823D01*
X69941Y606870D01*
X69904Y606953D01*
X69858Y607054D01*
X69811Y607175D01*
X69774Y607313D01*
X69747Y607471D01*
X69738Y607628D01*
Y607646D01*
Y607702D01*
X69747Y607776D01*
X69765Y607877D01*
X69793Y607998D01*
X69839Y608127D01*
X69895Y608256D01*
X69969Y608386D01*
X69978Y608404D01*
X70006Y608441D01*
X70061Y608506D01*
X70135Y608580D01*
X70227Y608663D01*
X70338Y608756D01*
X70468Y608839D01*
X70625Y608922D01*
X70616D01*
X70597Y608931D01*
X70570Y608941D01*
X70533Y608950D01*
X70431Y608987D01*
X70301Y609042D01*
X70153Y609116D01*
X70006Y609209D01*
X69867Y609329D01*
X69738Y609468D01*
X69728Y609486D01*
X69691Y609542D01*
X69636Y609634D01*
X69580Y609754D01*
X69525Y609902D01*
X69469Y610078D01*
X69432Y610281D01*
X69423Y610503D01*
Y610512D01*
Y610540D01*
Y610586D01*
X69432Y610642D01*
X69442Y610716D01*
X69460Y610799D01*
X69479Y610891D01*
X69497Y610993D01*
X69571Y611215D01*
X69626Y611335D01*
X69682Y611446D01*
X69756Y611566D01*
X69839Y611687D01*
X69932Y611807D01*
X70043Y611918D01*
X70052Y611927D01*
X70070Y611945D01*
X70107Y611973D01*
X70153Y612010D01*
X70209Y612056D01*
X70283Y612103D01*
X70366Y612158D01*
X70468Y612204D01*
X70570Y612260D01*
X70690Y612315D01*
X70810Y612361D01*
X70949Y612408D01*
X71097Y612445D01*
X71254Y612472D01*
X71411Y612491D01*
X71587Y612500D01*
X71670D01*
X71725Y612491D01*
D02*
G37*
G36*
X77171D02*
X77254D01*
X77356Y612482D01*
X77467Y612463D01*
X77596Y612445D01*
X77864Y612398D01*
X78142Y612324D01*
X78419Y612223D01*
X78548Y612158D01*
X78678Y612084D01*
X78687Y612075D01*
X78706Y612066D01*
X78743Y612038D01*
X78780Y612001D01*
X78835Y611964D01*
X78900Y611908D01*
X78974Y611844D01*
X79048Y611770D01*
X79122Y611687D01*
X79205Y611603D01*
X79371Y611391D01*
X79528Y611141D01*
X79667Y610864D01*
Y610854D01*
X79686Y610827D01*
X79695Y610780D01*
X79723Y610725D01*
X79741Y610651D01*
X79769Y610559D01*
X79806Y610457D01*
X79834Y610346D01*
X79861Y610226D01*
X79898Y610087D01*
X79945Y609800D01*
X79982Y609477D01*
X80000Y609144D01*
Y609135D01*
Y609098D01*
Y609042D01*
X79991Y608978D01*
Y608885D01*
X79982Y608793D01*
X79972Y608672D01*
X79954Y608552D01*
X79908Y608284D01*
X79843Y607988D01*
X79750Y607692D01*
X79621Y607406D01*
X79612Y607397D01*
X79602Y607369D01*
X79584Y607332D01*
X79547Y607286D01*
X79510Y607221D01*
X79464Y607147D01*
X79344Y606981D01*
X79187Y606796D01*
X79001Y606611D01*
X78789Y606426D01*
X78539Y606269D01*
X78530Y606259D01*
X78502Y606250D01*
X78465Y606232D01*
X78419Y606204D01*
X78345Y606176D01*
X78271Y606148D01*
X78179Y606111D01*
X78077Y606074D01*
X77966Y606037D01*
X77846Y606001D01*
X77587Y605945D01*
X77291Y605899D01*
X76986Y605880D01*
X76894D01*
X76829Y605890D01*
X76746Y605899D01*
X76644Y605908D01*
X76542Y605917D01*
X76422Y605945D01*
X76172Y606001D01*
X75895Y606084D01*
X75756Y606139D01*
X75627Y606204D01*
X75497Y606287D01*
X75368Y606370D01*
X75359Y606380D01*
X75340Y606389D01*
X75303Y606417D01*
X75257Y606463D01*
X75211Y606509D01*
X75146Y606574D01*
X75081Y606648D01*
X75007Y606722D01*
X74934Y606814D01*
X74859Y606925D01*
X74776Y607036D01*
X74702Y607156D01*
X74638Y607295D01*
X74564Y607434D01*
X74508Y607581D01*
X74453Y607748D01*
X75285Y607942D01*
Y607933D01*
X75294Y607914D01*
X75312Y607877D01*
X75331Y607831D01*
X75349Y607776D01*
X75377Y607702D01*
X75451Y607554D01*
X75544Y607387D01*
X75655Y607221D01*
X75793Y607064D01*
X75941Y606925D01*
X75960Y606907D01*
X76015Y606870D01*
X76108Y606823D01*
X76228Y606759D01*
X76385Y606703D01*
X76561Y606648D01*
X76773Y606611D01*
X77004Y606601D01*
X77078D01*
X77125Y606611D01*
X77189D01*
X77263Y606620D01*
X77439Y606648D01*
X77633Y606685D01*
X77837Y606749D01*
X78049Y606842D01*
X78243Y606962D01*
X78253D01*
X78262Y606981D01*
X78327Y607027D01*
X78410Y607101D01*
X78512Y607212D01*
X78632Y607350D01*
X78743Y607508D01*
X78844Y607702D01*
X78937Y607914D01*
Y607924D01*
X78946Y607942D01*
X78955Y607970D01*
X78965Y608016D01*
X78983Y608072D01*
X79001Y608136D01*
X79029Y608293D01*
X79066Y608478D01*
X79103Y608682D01*
X79122Y608904D01*
X79131Y609144D01*
Y609153D01*
Y609181D01*
Y609227D01*
Y609283D01*
X79122Y609347D01*
Y609431D01*
X79113Y609523D01*
X79103Y609625D01*
X79075Y609847D01*
X79029Y610087D01*
X78974Y610327D01*
X78900Y610568D01*
Y610577D01*
X78891Y610596D01*
X78872Y610623D01*
X78854Y610670D01*
X78798Y610780D01*
X78715Y610910D01*
X78613Y611058D01*
X78484Y611215D01*
X78336Y611354D01*
X78160Y611483D01*
X78151D01*
X78133Y611492D01*
X78105Y611511D01*
X78068Y611529D01*
X78021Y611548D01*
X77966Y611576D01*
X77837Y611631D01*
X77670Y611687D01*
X77485Y611733D01*
X77282Y611770D01*
X77069Y611779D01*
X77004D01*
X76949Y611770D01*
X76884D01*
X76820Y611760D01*
X76653Y611724D01*
X76459Y611677D01*
X76265Y611603D01*
X76061Y611502D01*
X75960Y611446D01*
X75867Y611372D01*
X75858Y611363D01*
X75849Y611354D01*
X75821Y611326D01*
X75784Y611298D01*
X75747Y611252D01*
X75701Y611197D01*
X75645Y611141D01*
X75599Y611067D01*
X75544Y610984D01*
X75479Y610891D01*
X75423Y610799D01*
X75368Y610688D01*
X75322Y610568D01*
X75276Y610438D01*
X75229Y610300D01*
X75192Y610152D01*
X74342Y610364D01*
Y610374D01*
X74351Y610411D01*
X74370Y610466D01*
X74397Y610540D01*
X74425Y610623D01*
X74462Y610725D01*
X74508Y610836D01*
X74564Y610956D01*
X74693Y611215D01*
X74859Y611474D01*
X74961Y611603D01*
X75063Y611733D01*
X75174Y611844D01*
X75303Y611955D01*
X75312Y611964D01*
X75331Y611982D01*
X75377Y612001D01*
X75423Y612038D01*
X75497Y612084D01*
X75571Y612130D01*
X75673Y612177D01*
X75775Y612223D01*
X75895Y612278D01*
X76024Y612324D01*
X76163Y612371D01*
X76311Y612417D01*
X76468Y612454D01*
X76635Y612472D01*
X76810Y612491D01*
X76995Y612500D01*
X77097D01*
X77171Y612491D01*
D02*
G37*
G36*
X82171Y272491D02*
X82254D01*
X82356Y272482D01*
X82467Y272463D01*
X82596Y272445D01*
X82864Y272398D01*
X83142Y272324D01*
X83419Y272223D01*
X83548Y272158D01*
X83678Y272084D01*
X83687Y272075D01*
X83706Y272066D01*
X83743Y272038D01*
X83780Y272001D01*
X83835Y271964D01*
X83900Y271908D01*
X83974Y271844D01*
X84048Y271770D01*
X84122Y271686D01*
X84205Y271603D01*
X84371Y271391D01*
X84529Y271141D01*
X84667Y270864D01*
Y270854D01*
X84686Y270827D01*
X84695Y270780D01*
X84723Y270725D01*
X84741Y270651D01*
X84769Y270558D01*
X84806Y270457D01*
X84834Y270346D01*
X84861Y270226D01*
X84898Y270087D01*
X84945Y269800D01*
X84982Y269477D01*
X85000Y269144D01*
Y269135D01*
Y269098D01*
Y269042D01*
X84991Y268978D01*
Y268885D01*
X84982Y268793D01*
X84972Y268672D01*
X84954Y268552D01*
X84908Y268284D01*
X84843Y267988D01*
X84750Y267692D01*
X84621Y267406D01*
X84612Y267397D01*
X84602Y267369D01*
X84584Y267332D01*
X84547Y267285D01*
X84510Y267221D01*
X84464Y267147D01*
X84344Y266980D01*
X84186Y266796D01*
X84002Y266611D01*
X83789Y266426D01*
X83539Y266269D01*
X83530Y266259D01*
X83502Y266250D01*
X83465Y266231D01*
X83419Y266204D01*
X83345Y266176D01*
X83271Y266148D01*
X83179Y266111D01*
X83077Y266074D01*
X82966Y266037D01*
X82846Y266000D01*
X82587Y265945D01*
X82291Y265899D01*
X81986Y265880D01*
X81894D01*
X81829Y265889D01*
X81746Y265899D01*
X81644Y265908D01*
X81542Y265917D01*
X81422Y265945D01*
X81172Y266000D01*
X80895Y266084D01*
X80756Y266139D01*
X80627Y266204D01*
X80498Y266287D01*
X80368Y266370D01*
X80359Y266380D01*
X80340Y266389D01*
X80303Y266416D01*
X80257Y266463D01*
X80211Y266509D01*
X80146Y266574D01*
X80081Y266648D01*
X80007Y266722D01*
X79934Y266814D01*
X79859Y266925D01*
X79776Y267036D01*
X79702Y267156D01*
X79638Y267295D01*
X79564Y267433D01*
X79508Y267581D01*
X79453Y267748D01*
X80285Y267942D01*
Y267933D01*
X80294Y267914D01*
X80312Y267877D01*
X80331Y267831D01*
X80350Y267776D01*
X80377Y267702D01*
X80451Y267554D01*
X80544Y267387D01*
X80655Y267221D01*
X80793Y267064D01*
X80941Y266925D01*
X80960Y266907D01*
X81015Y266870D01*
X81108Y266823D01*
X81228Y266758D01*
X81385Y266703D01*
X81561Y266648D01*
X81773Y266611D01*
X82004Y266601D01*
X82078D01*
X82125Y266611D01*
X82189D01*
X82263Y266620D01*
X82439Y266648D01*
X82633Y266685D01*
X82837Y266749D01*
X83049Y266842D01*
X83243Y266962D01*
X83253D01*
X83262Y266980D01*
X83327Y267027D01*
X83410Y267101D01*
X83511Y267212D01*
X83632Y267350D01*
X83743Y267507D01*
X83844Y267702D01*
X83937Y267914D01*
Y267924D01*
X83946Y267942D01*
X83955Y267970D01*
X83965Y268016D01*
X83983Y268071D01*
X84002Y268136D01*
X84029Y268293D01*
X84066Y268478D01*
X84103Y268682D01*
X84122Y268904D01*
X84131Y269144D01*
Y269153D01*
Y269181D01*
Y269227D01*
Y269283D01*
X84122Y269347D01*
Y269431D01*
X84113Y269523D01*
X84103Y269625D01*
X84075Y269847D01*
X84029Y270087D01*
X83974Y270327D01*
X83900Y270568D01*
Y270577D01*
X83891Y270595D01*
X83872Y270623D01*
X83854Y270669D01*
X83798Y270780D01*
X83715Y270910D01*
X83613Y271058D01*
X83484Y271215D01*
X83336Y271354D01*
X83160Y271483D01*
X83151D01*
X83132Y271492D01*
X83105Y271511D01*
X83068Y271529D01*
X83021Y271548D01*
X82966Y271576D01*
X82837Y271631D01*
X82670Y271686D01*
X82485Y271733D01*
X82282Y271770D01*
X82069Y271779D01*
X82004D01*
X81949Y271770D01*
X81884D01*
X81820Y271760D01*
X81653Y271723D01*
X81459Y271677D01*
X81265Y271603D01*
X81061Y271502D01*
X80960Y271446D01*
X80867Y271372D01*
X80858Y271363D01*
X80849Y271354D01*
X80821Y271326D01*
X80784Y271298D01*
X80747Y271252D01*
X80701Y271196D01*
X80645Y271141D01*
X80599Y271067D01*
X80544Y270984D01*
X80479Y270891D01*
X80423Y270799D01*
X80368Y270688D01*
X80322Y270568D01*
X80276Y270438D01*
X80229Y270300D01*
X80192Y270152D01*
X79342Y270364D01*
Y270374D01*
X79351Y270411D01*
X79370Y270466D01*
X79397Y270540D01*
X79425Y270623D01*
X79462Y270725D01*
X79508Y270836D01*
X79564Y270956D01*
X79693Y271215D01*
X79859Y271474D01*
X79961Y271603D01*
X80063Y271733D01*
X80174Y271844D01*
X80303Y271955D01*
X80312Y271964D01*
X80331Y271982D01*
X80377Y272001D01*
X80423Y272038D01*
X80498Y272084D01*
X80571Y272130D01*
X80673Y272176D01*
X80775Y272223D01*
X80895Y272278D01*
X81025Y272324D01*
X81163Y272371D01*
X81311Y272417D01*
X81468Y272454D01*
X81635Y272472D01*
X81810Y272491D01*
X81995Y272500D01*
X82097D01*
X82171Y272491D01*
D02*
G37*
G36*
X76106Y270854D02*
X78889D01*
Y270133D01*
X75958Y265991D01*
X75320D01*
Y270133D01*
X74451D01*
Y270854D01*
X75320D01*
Y272389D01*
X76106D01*
Y270854D01*
D02*
G37*
G36*
X76716Y92491D02*
X76790Y92482D01*
X76873Y92472D01*
X76975Y92463D01*
X77077Y92435D01*
X77308Y92380D01*
X77539Y92297D01*
X77659Y92241D01*
X77779Y92177D01*
X77890Y92102D01*
X78001Y92019D01*
X78010Y92010D01*
X78029Y92001D01*
X78047Y91964D01*
X78084Y91927D01*
X78131Y91881D01*
X78177Y91825D01*
X78232Y91751D01*
X78278Y91668D01*
X78334Y91585D01*
X78390Y91483D01*
X78491Y91261D01*
X78574Y91002D01*
X78602Y90864D01*
X78621Y90716D01*
X77798Y90651D01*
Y90660D01*
Y90679D01*
X77789Y90706D01*
X77779Y90753D01*
X77751Y90854D01*
X77715Y90993D01*
X77659Y91132D01*
X77585Y91289D01*
X77493Y91428D01*
X77382Y91557D01*
X77363Y91566D01*
X77326Y91603D01*
X77252Y91650D01*
X77151Y91705D01*
X77040Y91760D01*
X76901Y91807D01*
X76744Y91844D01*
X76568Y91853D01*
X76513D01*
X76476Y91844D01*
X76365Y91834D01*
X76235Y91797D01*
X76078Y91751D01*
X75921Y91677D01*
X75754Y91566D01*
X75680Y91502D01*
X75606Y91428D01*
X75597Y91418D01*
X75588Y91409D01*
X75570Y91381D01*
X75542Y91354D01*
X75477Y91252D01*
X75403Y91123D01*
X75338Y90965D01*
X75274Y90771D01*
X75227Y90540D01*
X75209Y90420D01*
Y90290D01*
Y90281D01*
Y90263D01*
Y90226D01*
X75218Y90179D01*
Y90124D01*
X75227Y90059D01*
X75255Y89911D01*
X75301Y89736D01*
X75366Y89560D01*
X75459Y89394D01*
X75588Y89236D01*
Y89227D01*
X75606Y89218D01*
X75653Y89172D01*
X75736Y89107D01*
X75847Y89033D01*
X75995Y88968D01*
X76161Y88904D01*
X76355Y88857D01*
X76466Y88839D01*
X76642D01*
X76716Y88848D01*
X76809Y88857D01*
X76919Y88885D01*
X77030Y88913D01*
X77151Y88959D01*
X77271Y89015D01*
X77280Y89024D01*
X77317Y89042D01*
X77372Y89088D01*
X77446Y89135D01*
X77520Y89199D01*
X77594Y89283D01*
X77677Y89366D01*
X77742Y89467D01*
X78482Y89366D01*
X77863Y86074D01*
X74682D01*
Y86823D01*
X77243D01*
X77585Y88552D01*
X77576Y88543D01*
X77557Y88534D01*
X77530Y88515D01*
X77483Y88488D01*
X77428Y88460D01*
X77363Y88423D01*
X77215Y88349D01*
X77030Y88275D01*
X76827Y88210D01*
X76605Y88164D01*
X76494Y88145D01*
X76291D01*
X76235Y88155D01*
X76161Y88164D01*
X76078Y88173D01*
X75986Y88192D01*
X75884Y88219D01*
X75662Y88284D01*
X75542Y88330D01*
X75422Y88395D01*
X75301Y88460D01*
X75181Y88534D01*
X75070Y88626D01*
X74959Y88728D01*
X74950Y88737D01*
X74932Y88756D01*
X74904Y88783D01*
X74867Y88830D01*
X74821Y88894D01*
X74774Y88959D01*
X74719Y89042D01*
X74664Y89135D01*
X74617Y89236D01*
X74562Y89347D01*
X74516Y89477D01*
X74469Y89606D01*
X74432Y89745D01*
X74405Y89902D01*
X74386Y90059D01*
X74377Y90226D01*
Y90235D01*
Y90263D01*
Y90309D01*
X74386Y90374D01*
X74395Y90448D01*
X74405Y90531D01*
X74423Y90632D01*
X74442Y90734D01*
X74497Y90975D01*
X74590Y91224D01*
X74645Y91354D01*
X74719Y91474D01*
X74793Y91603D01*
X74885Y91723D01*
X74895Y91733D01*
X74913Y91760D01*
X74950Y91797D01*
X74996Y91844D01*
X75061Y91899D01*
X75135Y91973D01*
X75227Y92038D01*
X75329Y92112D01*
X75440Y92186D01*
X75570Y92250D01*
X75708Y92315D01*
X75856Y92380D01*
X76013Y92426D01*
X76189Y92463D01*
X76374Y92491D01*
X76568Y92500D01*
X76651D01*
X76716Y92491D01*
D02*
G37*
G36*
X82171D02*
X82254D01*
X82356Y92482D01*
X82467Y92463D01*
X82596Y92445D01*
X82864Y92398D01*
X83142Y92324D01*
X83419Y92223D01*
X83548Y92158D01*
X83678Y92084D01*
X83687Y92075D01*
X83706Y92065D01*
X83743Y92038D01*
X83780Y92001D01*
X83835Y91964D01*
X83900Y91908D01*
X83974Y91844D01*
X84048Y91770D01*
X84122Y91686D01*
X84205Y91603D01*
X84371Y91391D01*
X84529Y91141D01*
X84667Y90864D01*
Y90854D01*
X84686Y90827D01*
X84695Y90780D01*
X84723Y90725D01*
X84741Y90651D01*
X84769Y90559D01*
X84806Y90457D01*
X84834Y90346D01*
X84861Y90226D01*
X84898Y90087D01*
X84945Y89800D01*
X84982Y89477D01*
X85000Y89144D01*
Y89135D01*
Y89098D01*
Y89042D01*
X84991Y88977D01*
Y88885D01*
X84982Y88793D01*
X84972Y88672D01*
X84954Y88552D01*
X84908Y88284D01*
X84843Y87988D01*
X84750Y87692D01*
X84621Y87406D01*
X84612Y87396D01*
X84602Y87369D01*
X84584Y87332D01*
X84547Y87286D01*
X84510Y87221D01*
X84464Y87147D01*
X84344Y86980D01*
X84186Y86796D01*
X84002Y86611D01*
X83789Y86426D01*
X83539Y86269D01*
X83530Y86259D01*
X83502Y86250D01*
X83465Y86232D01*
X83419Y86204D01*
X83345Y86176D01*
X83271Y86148D01*
X83179Y86111D01*
X83077Y86074D01*
X82966Y86037D01*
X82846Y86000D01*
X82587Y85945D01*
X82291Y85899D01*
X81986Y85880D01*
X81894D01*
X81829Y85890D01*
X81746Y85899D01*
X81644Y85908D01*
X81542Y85917D01*
X81422Y85945D01*
X81172Y86000D01*
X80895Y86084D01*
X80756Y86139D01*
X80627Y86204D01*
X80498Y86287D01*
X80368Y86370D01*
X80359Y86379D01*
X80340Y86389D01*
X80303Y86417D01*
X80257Y86463D01*
X80211Y86509D01*
X80146Y86574D01*
X80081Y86648D01*
X80007Y86722D01*
X79934Y86814D01*
X79859Y86925D01*
X79776Y87036D01*
X79702Y87156D01*
X79638Y87295D01*
X79564Y87434D01*
X79508Y87581D01*
X79453Y87748D01*
X80285Y87942D01*
Y87933D01*
X80294Y87914D01*
X80312Y87877D01*
X80331Y87831D01*
X80350Y87776D01*
X80377Y87702D01*
X80451Y87554D01*
X80544Y87387D01*
X80655Y87221D01*
X80793Y87064D01*
X80941Y86925D01*
X80960Y86906D01*
X81015Y86869D01*
X81108Y86823D01*
X81228Y86759D01*
X81385Y86703D01*
X81561Y86648D01*
X81773Y86611D01*
X82004Y86601D01*
X82078D01*
X82125Y86611D01*
X82189D01*
X82263Y86620D01*
X82439Y86648D01*
X82633Y86685D01*
X82837Y86749D01*
X83049Y86842D01*
X83243Y86962D01*
X83253D01*
X83262Y86980D01*
X83327Y87027D01*
X83410Y87101D01*
X83511Y87212D01*
X83632Y87350D01*
X83743Y87507D01*
X83844Y87702D01*
X83937Y87914D01*
Y87923D01*
X83946Y87942D01*
X83955Y87970D01*
X83965Y88016D01*
X83983Y88071D01*
X84002Y88136D01*
X84029Y88293D01*
X84066Y88478D01*
X84103Y88682D01*
X84122Y88904D01*
X84131Y89144D01*
Y89153D01*
Y89181D01*
Y89227D01*
Y89283D01*
X84122Y89347D01*
Y89431D01*
X84113Y89523D01*
X84103Y89625D01*
X84075Y89847D01*
X84029Y90087D01*
X83974Y90327D01*
X83900Y90568D01*
Y90577D01*
X83891Y90596D01*
X83872Y90623D01*
X83854Y90669D01*
X83798Y90780D01*
X83715Y90910D01*
X83613Y91058D01*
X83484Y91215D01*
X83336Y91354D01*
X83160Y91483D01*
X83151D01*
X83132Y91492D01*
X83105Y91511D01*
X83068Y91529D01*
X83021Y91548D01*
X82966Y91575D01*
X82837Y91631D01*
X82670Y91686D01*
X82485Y91733D01*
X82282Y91770D01*
X82069Y91779D01*
X82004D01*
X81949Y91770D01*
X81884D01*
X81820Y91760D01*
X81653Y91723D01*
X81459Y91677D01*
X81265Y91603D01*
X81061Y91502D01*
X80960Y91446D01*
X80867Y91372D01*
X80858Y91363D01*
X80849Y91354D01*
X80821Y91326D01*
X80784Y91298D01*
X80747Y91252D01*
X80701Y91196D01*
X80645Y91141D01*
X80599Y91067D01*
X80544Y90984D01*
X80479Y90891D01*
X80423Y90799D01*
X80368Y90688D01*
X80322Y90568D01*
X80276Y90438D01*
X80229Y90300D01*
X80192Y90152D01*
X79342Y90364D01*
Y90374D01*
X79351Y90411D01*
X79370Y90466D01*
X79397Y90540D01*
X79425Y90623D01*
X79462Y90725D01*
X79508Y90836D01*
X79564Y90956D01*
X79693Y91215D01*
X79859Y91474D01*
X79961Y91603D01*
X80063Y91733D01*
X80174Y91844D01*
X80303Y91955D01*
X80312Y91964D01*
X80331Y91982D01*
X80377Y92001D01*
X80423Y92038D01*
X80498Y92084D01*
X80571Y92130D01*
X80673Y92177D01*
X80775Y92223D01*
X80895Y92278D01*
X81025Y92324D01*
X81163Y92371D01*
X81311Y92417D01*
X81468Y92454D01*
X81635Y92472D01*
X81810Y92491D01*
X81995Y92500D01*
X82097D01*
X82171Y92491D01*
D02*
G37*
G36*
X735000Y335793D02*
X729998D01*
X730007Y335784D01*
X730044Y335738D01*
X730100Y335682D01*
X730165Y335590D01*
X730248Y335488D01*
X730340Y335359D01*
X730442Y335211D01*
X730544Y335044D01*
Y335035D01*
X730553Y335026D01*
X730590Y334970D01*
X730636Y334878D01*
X730692Y334767D01*
X730756Y334637D01*
X730821Y334499D01*
X730886Y334360D01*
X730941Y334221D01*
X730183D01*
Y334231D01*
X730165Y334249D01*
X730155Y334286D01*
X730128Y334332D01*
X730100Y334388D01*
X730063Y334453D01*
X729970Y334610D01*
X729869Y334795D01*
X729739Y334980D01*
X729591Y335174D01*
X729434Y335368D01*
X729425Y335377D01*
X729416Y335386D01*
X729388Y335414D01*
X729360Y335451D01*
X729268Y335534D01*
X729157Y335645D01*
X729027Y335756D01*
X728879Y335876D01*
X728732Y335978D01*
X728574Y336071D01*
Y336579D01*
X735000D01*
Y335793D01*
D02*
G37*
G36*
Y332067D02*
X733669Y331226D01*
X733660D01*
X733641Y331207D01*
X733613Y331189D01*
X733576Y331161D01*
X733475Y331096D01*
X733345Y331013D01*
X733206Y330911D01*
X733058Y330810D01*
X732920Y330708D01*
X732790Y330616D01*
X732781Y330606D01*
X732744Y330579D01*
X732689Y330532D01*
X732624Y330468D01*
X732485Y330329D01*
X732421Y330255D01*
X732365Y330181D01*
X732356Y330172D01*
X732347Y330153D01*
X732328Y330116D01*
X732300Y330061D01*
X732273Y330005D01*
X732245Y329941D01*
X732199Y329793D01*
Y329784D01*
X732189Y329765D01*
Y329728D01*
X732180Y329682D01*
X732171Y329617D01*
Y329543D01*
X732162Y329441D01*
Y328350D01*
X735000D01*
Y327500D01*
X728602D01*
Y330468D01*
X728611Y330542D01*
Y330625D01*
X728621Y330819D01*
X728648Y331022D01*
X728676Y331244D01*
X728722Y331448D01*
X728750Y331549D01*
X728778Y331633D01*
Y331642D01*
X728787Y331651D01*
X728815Y331707D01*
X728852Y331790D01*
X728916Y331892D01*
X729000Y332002D01*
X729111Y332123D01*
X729240Y332234D01*
X729388Y332345D01*
X729397D01*
X729407Y332354D01*
X729462Y332391D01*
X729554Y332428D01*
X729675Y332483D01*
X729813Y332529D01*
X729980Y332576D01*
X730155Y332603D01*
X730350Y332613D01*
X730359D01*
X730377D01*
X730414D01*
X730461Y332603D01*
X730525D01*
X730590Y332594D01*
X730747Y332557D01*
X730932Y332502D01*
X731126Y332428D01*
X731320Y332317D01*
X731413Y332243D01*
X731505Y332169D01*
X731515Y332160D01*
X731524Y332150D01*
X731552Y332123D01*
X731579Y332086D01*
X731616Y332039D01*
X731653Y331984D01*
X731699Y331910D01*
X731755Y331836D01*
X731801Y331744D01*
X731847Y331642D01*
X731903Y331531D01*
X731949Y331411D01*
X731986Y331272D01*
X732032Y331133D01*
X732060Y330976D01*
X732088Y330810D01*
X732097Y330828D01*
X732115Y330865D01*
X732152Y330921D01*
X732189Y330995D01*
X732291Y331161D01*
X732356Y331244D01*
X732411Y331318D01*
X732430Y331337D01*
X732476Y331383D01*
X732550Y331457D01*
X732643Y331549D01*
X732772Y331651D01*
X732911Y331771D01*
X733077Y331892D01*
X733262Y332021D01*
X735000Y333121D01*
Y332067D01*
D02*
G37*
G36*
X738171Y794110D02*
X738254Y794101D01*
X738356Y794092D01*
X738458Y794083D01*
X738578Y794055D01*
X738828Y793999D01*
X739105Y793916D01*
X739244Y793861D01*
X739373Y793796D01*
X739502Y793713D01*
X739632Y793630D01*
X739641Y793621D01*
X739660Y793611D01*
X739697Y793584D01*
X739743Y793537D01*
X739789Y793491D01*
X739854Y793426D01*
X739919Y793352D01*
X739993Y793278D01*
X740066Y793186D01*
X740140Y793075D01*
X740224Y792964D01*
X740298Y792844D01*
X740362Y792705D01*
X740436Y792567D01*
X740492Y792419D01*
X740547Y792252D01*
X739715Y792058D01*
Y792067D01*
X739706Y792086D01*
X739687Y792123D01*
X739669Y792169D01*
X739650Y792224D01*
X739623Y792298D01*
X739549Y792446D01*
X739456Y792613D01*
X739345Y792779D01*
X739207Y792936D01*
X739059Y793075D01*
X739040Y793093D01*
X738985Y793130D01*
X738892Y793177D01*
X738772Y793241D01*
X738615Y793297D01*
X738439Y793352D01*
X738227Y793389D01*
X737995Y793399D01*
X737922D01*
X737875Y793389D01*
X737811D01*
X737737Y793380D01*
X737561Y793352D01*
X737367Y793315D01*
X737163Y793251D01*
X736951Y793158D01*
X736757Y793038D01*
X736747D01*
X736738Y793019D01*
X736673Y792973D01*
X736590Y792899D01*
X736488Y792788D01*
X736368Y792650D01*
X736257Y792493D01*
X736156Y792298D01*
X736063Y792086D01*
Y792076D01*
X736054Y792058D01*
X736045Y792030D01*
X736035Y791984D01*
X736017Y791928D01*
X735998Y791864D01*
X735971Y791707D01*
X735934Y791522D01*
X735897Y791318D01*
X735878Y791096D01*
X735869Y790856D01*
Y790847D01*
Y790819D01*
Y790773D01*
Y790717D01*
X735878Y790653D01*
Y790569D01*
X735887Y790477D01*
X735897Y790375D01*
X735924Y790153D01*
X735971Y789913D01*
X736026Y789673D01*
X736100Y789432D01*
Y789423D01*
X736109Y789405D01*
X736128Y789377D01*
X736146Y789331D01*
X736202Y789220D01*
X736285Y789090D01*
X736387Y788942D01*
X736516Y788785D01*
X736664Y788646D01*
X736840Y788517D01*
X736849D01*
X736868Y788508D01*
X736895Y788489D01*
X736932Y788471D01*
X736978Y788452D01*
X737034Y788424D01*
X737163Y788369D01*
X737330Y788314D01*
X737515Y788267D01*
X737718Y788230D01*
X737931Y788221D01*
X737995D01*
X738051Y788230D01*
X738116D01*
X738180Y788240D01*
X738347Y788277D01*
X738541Y788323D01*
X738735Y788397D01*
X738939Y788498D01*
X739040Y788554D01*
X739133Y788628D01*
X739142Y788637D01*
X739151Y788646D01*
X739179Y788674D01*
X739216Y788702D01*
X739253Y788748D01*
X739299Y788803D01*
X739354Y788859D01*
X739401Y788933D01*
X739456Y789016D01*
X739521Y789109D01*
X739576Y789201D01*
X739632Y789312D01*
X739678Y789432D01*
X739724Y789562D01*
X739771Y789700D01*
X739808Y789848D01*
X740658Y789636D01*
Y789626D01*
X740649Y789589D01*
X740630Y789534D01*
X740603Y789460D01*
X740575Y789377D01*
X740538Y789275D01*
X740492Y789164D01*
X740436Y789044D01*
X740307Y788785D01*
X740140Y788526D01*
X740039Y788397D01*
X739937Y788267D01*
X739826Y788156D01*
X739697Y788045D01*
X739687Y788036D01*
X739669Y788018D01*
X739623Y787999D01*
X739576Y787962D01*
X739502Y787916D01*
X739428Y787870D01*
X739327Y787823D01*
X739225Y787777D01*
X739105Y787722D01*
X738976Y787675D01*
X738837Y787629D01*
X738689Y787583D01*
X738532Y787546D01*
X738365Y787528D01*
X738190Y787509D01*
X738005Y787500D01*
X737903D01*
X737829Y787509D01*
X737746D01*
X737644Y787518D01*
X737533Y787537D01*
X737404Y787555D01*
X737136Y787602D01*
X736858Y787675D01*
X736581Y787777D01*
X736451Y787842D01*
X736322Y787916D01*
X736313Y787925D01*
X736294Y787934D01*
X736257Y787962D01*
X736220Y787999D01*
X736165Y788036D01*
X736100Y788092D01*
X736026Y788156D01*
X735952Y788230D01*
X735878Y788314D01*
X735795Y788397D01*
X735629Y788609D01*
X735471Y788859D01*
X735333Y789136D01*
Y789146D01*
X735314Y789173D01*
X735305Y789220D01*
X735277Y789275D01*
X735259Y789349D01*
X735231Y789441D01*
X735194Y789543D01*
X735166Y789654D01*
X735138Y789774D01*
X735102Y789913D01*
X735055Y790200D01*
X735018Y790523D01*
X735000Y790856D01*
Y790865D01*
Y790902D01*
Y790958D01*
X735009Y791022D01*
Y791115D01*
X735018Y791207D01*
X735028Y791328D01*
X735046Y791448D01*
X735092Y791716D01*
X735157Y792012D01*
X735249Y792308D01*
X735379Y792594D01*
X735388Y792603D01*
X735397Y792631D01*
X735416Y792668D01*
X735453Y792714D01*
X735490Y792779D01*
X735536Y792853D01*
X735656Y793019D01*
X735814Y793204D01*
X735998Y793389D01*
X736211Y793574D01*
X736461Y793731D01*
X736470Y793741D01*
X736498Y793750D01*
X736535Y793768D01*
X736581Y793796D01*
X736655Y793824D01*
X736729Y793852D01*
X736821Y793889D01*
X736923Y793926D01*
X737034Y793962D01*
X737154Y793999D01*
X737413Y794055D01*
X737709Y794101D01*
X738014Y794120D01*
X738106D01*
X738171Y794110D01*
D02*
G37*
G36*
X743654Y794027D02*
X743728Y794018D01*
X743820Y794009D01*
X743922Y793990D01*
X744024Y793972D01*
X744264Y793907D01*
X744504Y793815D01*
X744624Y793759D01*
X744745Y793694D01*
X744856Y793611D01*
X744957Y793519D01*
X744967Y793510D01*
X744985Y793500D01*
X745004Y793463D01*
X745041Y793426D01*
X745087Y793380D01*
X745133Y793315D01*
X745179Y793251D01*
X745235Y793167D01*
X745327Y792992D01*
X745420Y792770D01*
X745457Y792659D01*
X745475Y792530D01*
X745494Y792400D01*
X745503Y792261D01*
Y792243D01*
Y792197D01*
X745494Y792123D01*
X745484Y792021D01*
X745466Y791910D01*
X745429Y791781D01*
X745392Y791642D01*
X745336Y791503D01*
X745327Y791485D01*
X745309Y791439D01*
X745272Y791365D01*
X745216Y791263D01*
X745142Y791152D01*
X745050Y791013D01*
X744939Y790874D01*
X744809Y790717D01*
X744791Y790699D01*
X744745Y790643D01*
X744698Y790597D01*
X744652Y790551D01*
X744597Y790495D01*
X744523Y790422D01*
X744449Y790348D01*
X744356Y790264D01*
X744264Y790172D01*
X744153Y790070D01*
X744033Y789968D01*
X743903Y789848D01*
X743755Y789728D01*
X743607Y789599D01*
X743598Y789589D01*
X743580Y789571D01*
X743543Y789543D01*
X743497Y789506D01*
X743441Y789451D01*
X743376Y789395D01*
X743228Y789275D01*
X743071Y789136D01*
X742923Y788998D01*
X742794Y788877D01*
X742738Y788831D01*
X742692Y788785D01*
X742683Y788776D01*
X742655Y788748D01*
X742618Y788711D01*
X742572Y788656D01*
X742526Y788591D01*
X742470Y788526D01*
X742359Y788369D01*
X745512D01*
Y787611D01*
X741268D01*
Y787620D01*
Y787657D01*
Y787712D01*
X741278Y787786D01*
X741287Y787870D01*
X741305Y787962D01*
X741324Y788055D01*
X741361Y788156D01*
Y788166D01*
X741370Y788175D01*
X741389Y788230D01*
X741425Y788314D01*
X741481Y788424D01*
X741555Y788554D01*
X741647Y788702D01*
X741749Y788850D01*
X741879Y789007D01*
Y789016D01*
X741897Y789025D01*
X741943Y789081D01*
X742027Y789164D01*
X742147Y789284D01*
X742285Y789423D01*
X742461Y789589D01*
X742674Y789774D01*
X742905Y789968D01*
X742914Y789978D01*
X742951Y790005D01*
X743007Y790052D01*
X743071Y790107D01*
X743155Y790181D01*
X743256Y790264D01*
X743358Y790357D01*
X743478Y790459D01*
X743709Y790680D01*
X743940Y790902D01*
X744051Y791013D01*
X744153Y791124D01*
X744246Y791226D01*
X744319Y791328D01*
Y791337D01*
X744338Y791346D01*
X744356Y791374D01*
X744375Y791411D01*
X744440Y791513D01*
X744514Y791633D01*
X744578Y791781D01*
X744643Y791938D01*
X744680Y792113D01*
X744698Y792280D01*
Y792289D01*
Y792298D01*
X744689Y792354D01*
X744680Y792446D01*
X744652Y792548D01*
X744615Y792677D01*
X744551Y792807D01*
X744467Y792936D01*
X744356Y793066D01*
X744338Y793084D01*
X744292Y793121D01*
X744227Y793167D01*
X744125Y793232D01*
X743996Y793288D01*
X743848Y793343D01*
X743672Y793380D01*
X743478Y793389D01*
X743423D01*
X743386Y793380D01*
X743275Y793371D01*
X743145Y793343D01*
X743007Y793306D01*
X742849Y793241D01*
X742701Y793158D01*
X742563Y793047D01*
X742544Y793029D01*
X742507Y792982D01*
X742452Y792908D01*
X742396Y792798D01*
X742332Y792668D01*
X742276Y792502D01*
X742239Y792317D01*
X742221Y792104D01*
X741416Y792187D01*
Y792197D01*
X741425Y792224D01*
Y792271D01*
X741435Y792335D01*
X741453Y792409D01*
X741472Y792493D01*
X741499Y792594D01*
X741527Y792696D01*
X741601Y792918D01*
X741712Y793140D01*
X741777Y793251D01*
X741860Y793362D01*
X741943Y793463D01*
X742036Y793556D01*
X742045Y793565D01*
X742064Y793574D01*
X742091Y793602D01*
X742138Y793630D01*
X742193Y793667D01*
X742258Y793704D01*
X742332Y793750D01*
X742424Y793796D01*
X742526Y793842D01*
X742637Y793889D01*
X742757Y793926D01*
X742886Y793962D01*
X743025Y793990D01*
X743173Y794018D01*
X743330Y794027D01*
X743497Y794036D01*
X743589D01*
X743654Y794027D01*
D02*
G37*
%LPC*%
G36*
X78121Y270133D02*
X76106D01*
Y267267D01*
X78121Y270133D01*
D02*
G37*
G36*
X730359Y331744D02*
X730350D01*
X730340D01*
X730285Y331734D01*
X730202Y331725D01*
X730091Y331707D01*
X729980Y331660D01*
X729850Y331605D01*
X729730Y331522D01*
X729610Y331411D01*
X729601Y331392D01*
X729564Y331346D01*
X729518Y331272D01*
X729462Y331152D01*
X729407Y331013D01*
X729360Y330828D01*
X729323Y330616D01*
X729314Y330366D01*
Y328350D01*
X731431D01*
Y330255D01*
X731422Y330366D01*
X731413Y330495D01*
X731404Y330643D01*
X731385Y330791D01*
X731357Y330939D01*
X731320Y331069D01*
X731311Y331087D01*
X731293Y331124D01*
X731265Y331180D01*
X731228Y331254D01*
X731172Y331337D01*
X731108Y331420D01*
X731024Y331503D01*
X730932Y331568D01*
X730923Y331577D01*
X730886Y331596D01*
X730830Y331623D01*
X730756Y331660D01*
X730673Y331688D01*
X730581Y331716D01*
X730470Y331734D01*
X730359Y331744D01*
D02*
G37*
%LPD*%
D10*
X112900Y595600D02*
Y629400D01*
X47100D02*
X112900D01*
X47100Y595600D02*
Y629400D01*
Y595600D02*
X112900D01*
X117900Y255600D02*
Y289400D01*
X52100D02*
X117900D01*
X52100Y255600D02*
Y289400D01*
Y255600D02*
X117900D01*
Y75600D02*
Y109400D01*
X52100D02*
X117900D01*
X52100Y75600D02*
Y109400D01*
Y75600D02*
X117900D01*
X702350Y218770D02*
X767650D01*
Y436230D01*
X702350D02*
X767650D01*
X702350Y218770D02*
Y436230D01*
X702100Y770600D02*
Y804400D01*
Y770600D02*
X767900D01*
Y804400D01*
X702100D02*
X767900D01*
M02*
