M48
;Layer_Color=9474304
;FILE_FORMAT=4:4
METRIC,LZ
;TYPE=PLATED
T1F00S00C0.8000
T2F00S00C0.9000
T3F00S00C1.0000
T4F00S00C1.0500
T5F00S00C1.0600
T6F00S00C1.1000
T7F00S00C1.3000
T8F00S00C3.5000
%
T01
X000596Y000925
X001104
Y002725
X000596
X007096Y007875
X007604
X001054Y006125
X000546
T02
X0009Y001575
Y002075
Y003375
Y003875
X00725Y001675
Y001275
Y001075
Y000875
X00095Y006875
Y007375
X0072Y008825
X00755
T03
X00235Y001545
Y002325
X0066Y003075
Y003775
Y000795
Y006055
Y006775
X00235Y007525
Y005305
Y004525
Y008305
X0066Y009055
T04
X00735Y0022777
Y0042723
T05
X0016Y0006408
Y0033092
Y0035908
Y0062592
Y0065408
Y0092092
T06
X00745Y004821
Y005329
X00735Y006321
Y006575
Y006829
X00075Y005179
Y004671
T07
X007095Y000575
X007625
Y001975
X007095
T08
X0003Y0003
X008025
X0003Y009375
X008025
M30
