G04*
G04 #@! TF.GenerationSoftware,Altium Limited,Altium Designer,23.4.1 (23)*
G04*
G04 Layer_Color=65535*
%FSLAX44Y44*%
%MOMM*%
G71*
G04*
G04 #@! TF.SameCoordinates,962042ED-4943-4C1F-BA74-C7D69658BEBC*
G04*
G04*
G04 #@! TF.FilePolarity,Positive*
G04*
G01*
G75*
%ADD10C,0.2000*%
%ADD11C,0.2540*%
%ADD12C,0.1000*%
%ADD13C,0.2500*%
%ADD14C,0.1270*%
%ADD15C,0.3500*%
D10*
X208000Y829500D02*
G03*
X208000Y831500I0J1000D01*
G01*
D02*
G03*
X208000Y829500I0J-1000D01*
G01*
Y531500D02*
G03*
X208000Y529500I0J-1000D01*
G01*
D02*
G03*
X208000Y531500I0J1000D01*
G01*
Y233500D02*
G03*
X208000Y231500I0J-1000D01*
G01*
D02*
G03*
X208000Y233500I0J1000D01*
G01*
X780000Y882500D02*
G03*
X780000Y882500I-42500J0D01*
G01*
X706500Y605500D02*
Y709500D01*
X752500D01*
Y605500D02*
Y709500D01*
X706500Y605500D02*
X752500D01*
X711500Y605500D02*
Y709500D01*
X75500Y667500D02*
X114500D01*
X75500D02*
Y757500D01*
X114500D01*
Y667500D02*
Y757500D01*
X105400Y596600D02*
Y602250D01*
Y622750D02*
Y628400D01*
X54600D02*
X105400D01*
X54600Y596600D02*
Y602250D01*
Y622750D02*
Y628400D01*
Y596600D02*
X105400D01*
X70500Y317500D02*
X109500D01*
X70500D02*
Y407500D01*
X109500D01*
Y317500D02*
Y407500D01*
X110400Y256600D02*
Y262250D01*
Y282750D02*
Y288400D01*
X59600D02*
X110400D01*
X59600Y256600D02*
Y262250D01*
Y282750D02*
Y288400D01*
Y256600D02*
X110400D01*
X70500Y137500D02*
X109500D01*
X70500D02*
Y227500D01*
X109500D01*
Y137500D02*
Y227500D01*
X110400Y76600D02*
Y82250D01*
Y102750D02*
Y108400D01*
X59600D02*
X110400D01*
X59600Y76600D02*
Y82250D01*
Y102750D02*
Y108400D01*
Y76600D02*
X110400D01*
X735000Y398850D02*
Y415230D01*
Y239770D02*
Y256150D01*
X703350D02*
X766650D01*
Y398850D01*
X703350D02*
X766650D01*
X703350Y256150D02*
Y398850D01*
X709600Y797750D02*
Y803400D01*
Y771600D02*
Y777250D01*
Y771600D02*
X760400D01*
Y797750D02*
Y803400D01*
Y771600D02*
Y777250D01*
X709600Y803400D02*
X760400D01*
D11*
X827500Y937500D02*
G03*
X827500Y937500I-25000J0D01*
G01*
X827249Y30000D02*
G03*
X827249Y30000I-24749J0D01*
G01*
X55739D02*
G03*
X55739Y30000I-25739J0D01*
G01*
X54749Y937500D02*
G03*
X54749Y937500I-24749J0D01*
G01*
X418743Y41257D02*
Y937254D01*
X70000Y793750D02*
X73750Y797500D01*
X102500D01*
X107500Y802500D01*
Y855000D01*
X102500Y805000D02*
Y930000D01*
X100000Y802500D02*
X102500Y805000D01*
X65000Y802500D02*
X100000D01*
X27500D02*
X65000D01*
Y777500D02*
Y802500D01*
X5000D02*
X27500D01*
Y787500D02*
Y802500D01*
Y715000D02*
Y787500D01*
X107500Y930000D02*
X115000Y937500D01*
X107500Y920000D02*
Y930000D01*
X115000Y937500D02*
X140000D01*
X95000D02*
X102500Y930000D01*
X54749Y937500D02*
X95000D01*
X140000D02*
X145000D01*
X107500Y880000D02*
Y920000D01*
X27500Y715000D02*
X35000Y707500D01*
Y702500D02*
Y707500D01*
X65000Y732500D02*
Y777500D01*
X35000Y702500D02*
X65000Y732500D01*
X35000Y560000D02*
Y702500D01*
X20000Y545000D02*
X35000Y560000D01*
X10000Y545000D02*
X20000D01*
X5000Y550000D02*
X10000Y545000D01*
X5000Y550000D02*
Y937500D01*
X107500Y855000D02*
Y880000D01*
X145000Y937500D02*
X757500D01*
X790000Y905000D01*
Y860000D02*
Y905000D01*
X765000Y835000D02*
X790000Y860000D01*
X765000Y817500D02*
Y835000D01*
Y817500D02*
X777500Y805000D01*
Y695000D02*
Y805000D01*
Y695000D02*
X797500Y675000D01*
Y455000D02*
Y675000D01*
X780000Y437500D02*
X797500Y455000D01*
X780000Y47500D02*
Y437500D01*
X767500Y35000D02*
X780000Y47500D01*
X692500Y35000D02*
X767500D01*
X677500Y20000D02*
X692500Y35000D01*
X625000Y20000D02*
X677500D01*
X605000Y40000D02*
X625000Y20000D01*
X142500Y40000D02*
X605000D01*
X115000Y67500D02*
X142500Y40000D01*
X57500Y67500D02*
X115000D01*
X42500Y82500D02*
X57500Y67500D01*
X42500Y82500D02*
Y425000D01*
X22500Y445000D02*
X42500Y425000D01*
X22500Y445000D02*
Y540000D01*
X40000Y557500D01*
Y700000D01*
X70000Y730000D01*
Y793750D01*
X636540Y381872D02*
X643204D01*
X639872Y385205D02*
Y378540D01*
X794538Y161540D02*
Y171537D01*
X789540Y166538D01*
X796205D01*
X789540Y132871D02*
X791206Y134537D01*
X794538D01*
X796205Y132871D01*
Y131205D01*
X794538Y129538D01*
X792872D01*
X794538D01*
X796205Y127872D01*
Y126206D01*
X794538Y124540D01*
X791206D01*
X789540Y126206D01*
X796205Y103540D02*
X789540D01*
X796205Y110204D01*
Y111871D01*
X794538Y113537D01*
X791206D01*
X789540Y111871D01*
X791540Y81540D02*
X794872D01*
X793206D01*
Y91537D01*
X791540Y89871D01*
X662540Y287540D02*
X669204D01*
X640040Y103372D02*
X646704D01*
X643372Y106705D02*
Y100040D01*
X670040Y620040D02*
X676704D01*
X630040Y902540D02*
X636704D01*
X632540Y693372D02*
X639204D01*
X635872Y696704D02*
Y690040D01*
X333294Y785040D02*
X334960Y786706D01*
Y790038D01*
X333294Y791704D01*
X326629D01*
X324963Y790038D01*
Y786706D01*
X326629Y785040D01*
X328296D01*
X329962Y786706D01*
Y791704D01*
X324963Y795037D02*
X331628D01*
X334960Y798369D01*
X331628Y801701D01*
X324963D01*
X340794Y492540D02*
X342460Y494206D01*
Y497538D01*
X340794Y499204D01*
X334129D01*
X332463Y497538D01*
Y494206D01*
X334129Y492540D01*
X335795D01*
X337462Y494206D01*
Y499204D01*
X332463Y502537D02*
X339128D01*
X342460Y505869D01*
X339128Y509201D01*
X332463D01*
X344960Y185040D02*
Y188372D01*
Y186706D01*
X334963D01*
X336629Y185040D01*
X344960Y200035D02*
Y193371D01*
X338296Y200035D01*
X336629D01*
X334963Y198369D01*
Y195037D01*
X336629Y193371D01*
X334963Y203367D02*
X341628D01*
X344960Y206700D01*
X341628Y210032D01*
X334963D01*
X432540Y70037D02*
Y60040D01*
X437538D01*
X439204Y61706D01*
Y68371D01*
X437538Y70037D01*
X432540D01*
X449201Y68371D02*
X447535Y70037D01*
X444203D01*
X442537Y68371D01*
Y61706D01*
X444203Y60040D01*
X447535D01*
X449201Y61706D01*
X387540Y60040D02*
Y66705D01*
X390872Y70037D01*
X394204Y66705D01*
Y60040D01*
Y65038D01*
X387540D01*
X404201Y68371D02*
X402535Y70037D01*
X399203D01*
X397537Y68371D01*
Y61706D01*
X399203Y60040D01*
X402535D01*
X404201Y61706D01*
X11631Y565040D02*
X19962D01*
X21628Y566706D01*
Y570038D01*
X19962Y571704D01*
X11631D01*
X21628Y575037D02*
X14963D01*
Y580035D01*
X16629Y581701D01*
X21628D01*
Y585034D02*
Y588366D01*
Y586700D01*
X14963D01*
Y585034D01*
Y593364D02*
X21628Y596696D01*
X14963Y600029D01*
X21628Y608359D02*
Y605027D01*
X19962Y603361D01*
X16629D01*
X14963Y605027D01*
Y608359D01*
X16629Y610025D01*
X18296D01*
Y603361D01*
X14963Y613358D02*
X21628D01*
X18296D01*
X16629Y615024D01*
X14963Y616690D01*
Y618356D01*
X21628Y623354D02*
Y628353D01*
X19962Y630019D01*
X18296Y628353D01*
Y625021D01*
X16629Y623354D01*
X14963Y625021D01*
Y630019D01*
X21628Y633351D02*
Y636684D01*
Y635017D01*
X14963D01*
Y633351D01*
X13297Y643348D02*
X14963D01*
Y641682D01*
Y645014D01*
Y643348D01*
X19962D01*
X21628Y645014D01*
X14963Y650013D02*
X19962D01*
X21628Y651679D01*
Y656677D01*
X23294D01*
X24960Y655011D01*
Y653345D01*
X21628Y656677D02*
X14963D01*
X21628Y671672D02*
Y675005D01*
X19962Y676671D01*
X16629D01*
X14963Y675005D01*
Y671672D01*
X16629Y670006D01*
X19962D01*
X21628Y671672D01*
Y681669D02*
X13297D01*
X16629D01*
Y680003D01*
Y683335D01*
Y681669D01*
X13297D01*
X11631Y683335D01*
X21628Y698330D02*
X11631D01*
X14963Y701663D01*
X11631Y704995D01*
X21628D01*
Y709993D02*
Y713326D01*
X19962Y714992D01*
X16629D01*
X14963Y713326D01*
Y709993D01*
X16629Y708327D01*
X19962D01*
X21628Y709993D01*
X14963Y718324D02*
X21628D01*
X18296D01*
X16629Y719990D01*
X14963Y721656D01*
Y723322D01*
Y729987D02*
Y733319D01*
X16629Y734985D01*
X21628D01*
Y729987D01*
X19962Y728321D01*
X18296Y729987D01*
Y734985D01*
X13297Y739984D02*
X14963D01*
Y738317D01*
Y741650D01*
Y739984D01*
X19962D01*
X21628Y741650D01*
X14963Y746648D02*
X19962D01*
X21628Y748314D01*
Y753313D01*
X14963D01*
Y756645D02*
X19962D01*
X21628Y758311D01*
X19962Y759977D01*
X21628Y761643D01*
X19962Y763309D01*
X14963D01*
Y768308D02*
Y771640D01*
X16629Y773306D01*
X21628D01*
Y768308D01*
X19962Y766642D01*
X18296Y768308D01*
Y773306D01*
X35797Y734204D02*
Y727540D01*
X45794D01*
Y734204D01*
X40795Y727540D02*
Y730872D01*
X45794Y737537D02*
X35797D01*
X45794Y744201D01*
X35797D01*
Y747534D02*
Y754198D01*
Y750866D01*
X45794D01*
X37463Y764195D02*
X35797Y762529D01*
Y759196D01*
X37463Y757530D01*
X44128D01*
X45794Y759196D01*
Y762529D01*
X44128Y764195D01*
X47460Y767527D02*
Y774192D01*
X45794Y784188D02*
Y777524D01*
X39129Y784188D01*
X37463D01*
X35797Y782522D01*
Y779190D01*
X37463Y777524D01*
Y787521D02*
X35797Y789187D01*
Y792519D01*
X37463Y794185D01*
X44128D01*
X45794Y792519D01*
Y789187D01*
X44128Y787521D01*
X37463D01*
X695000Y917498D02*
X701665D01*
X698332Y920831D02*
Y914166D01*
X314998Y783337D02*
X305002D01*
Y788335D01*
X306668Y790002D01*
X310000D01*
X311666Y788335D01*
Y783337D01*
X306668Y799998D02*
X305002Y798332D01*
Y795000D01*
X306668Y793334D01*
X308334D01*
X310000Y795000D01*
Y798332D01*
X311666Y799998D01*
X313332D01*
X314998Y798332D01*
Y795000D01*
X313332Y793334D01*
X314998Y803331D02*
Y806663D01*
Y804997D01*
X305002D01*
X306668Y803331D01*
X693168Y122500D02*
X691502Y120834D01*
Y117502D01*
X693168Y115836D01*
X694834D01*
X696500Y117502D01*
Y120834D01*
X698166Y122500D01*
X699832D01*
X701498Y120834D01*
Y117502D01*
X699832Y115836D01*
X701498Y125832D02*
Y129164D01*
Y127498D01*
X691502D01*
X693168Y125832D01*
X737336Y725998D02*
Y717668D01*
X739002Y716002D01*
X742334D01*
X744000Y717668D01*
Y725998D01*
X747332Y716002D02*
X750665D01*
X748998D01*
Y725998D01*
X747332Y724332D01*
X76671Y232502D02*
Y242498D01*
X81669D01*
X83336Y240832D01*
Y237500D01*
X81669Y235834D01*
X76671D01*
X80003D02*
X83336Y232502D01*
X86668Y242498D02*
Y235834D01*
X90000Y232502D01*
X93332Y235834D01*
Y242498D01*
X96664Y240832D02*
X98331Y242498D01*
X101663D01*
X103329Y240832D01*
Y239166D01*
X101663Y237500D01*
X99997D01*
X101663D01*
X103329Y235834D01*
Y234168D01*
X101663Y232502D01*
X98331D01*
X96664Y234168D01*
X59998Y374171D02*
X50002D01*
Y379169D01*
X51668Y380835D01*
X55000D01*
X56666Y379169D01*
Y374171D01*
Y377503D02*
X59998Y380835D01*
X50002Y384168D02*
X56666D01*
X59998Y387500D01*
X56666Y390832D01*
X50002D01*
X59998Y400829D02*
Y394165D01*
X53334Y400829D01*
X51668D01*
X50002Y399163D01*
Y395831D01*
X51668Y394165D01*
X83337Y767502D02*
Y777498D01*
X88336D01*
X90002Y775832D01*
Y772500D01*
X88336Y770834D01*
X83337D01*
X86669D02*
X90002Y767502D01*
X93334Y777498D02*
Y770834D01*
X96666Y767502D01*
X99998Y770834D01*
Y777498D01*
X103331Y767502D02*
X106663D01*
X104997D01*
Y777498D01*
X103331Y775832D01*
X708586Y439752D02*
Y449748D01*
X713584D01*
X715250Y448082D01*
Y444750D01*
X713584Y443084D01*
X708586D01*
X711918D02*
X715250Y439752D01*
X718582D02*
X721915D01*
X720248D01*
Y449748D01*
X718582Y448082D01*
X324998Y184171D02*
X315002D01*
Y189169D01*
X316668Y190835D01*
X320000D01*
X321666Y189169D01*
Y184171D01*
X316668Y200832D02*
X315002Y199166D01*
Y195834D01*
X316668Y194168D01*
X318334D01*
X320000Y195834D01*
Y199166D01*
X321666Y200832D01*
X323332D01*
X324998Y199166D01*
Y195834D01*
X323332Y194168D01*
X316668Y204165D02*
X315002Y205831D01*
Y209163D01*
X316668Y210829D01*
X318334D01*
X320000Y209163D01*
Y207497D01*
Y209163D01*
X321666Y210829D01*
X323332D01*
X324998Y209163D01*
Y205831D01*
X323332Y204165D01*
X324998Y491671D02*
X315002D01*
Y496669D01*
X316668Y498335D01*
X320000D01*
X321666Y496669D01*
Y491671D01*
X316668Y508332D02*
X315002Y506666D01*
Y503334D01*
X316668Y501668D01*
X318334D01*
X320000Y503334D01*
Y506666D01*
X321666Y508332D01*
X323332D01*
X324998Y506666D01*
Y503334D01*
X323332Y501668D01*
X324998Y518329D02*
Y511665D01*
X318334Y518329D01*
X316668D01*
X315002Y516663D01*
Y513331D01*
X316668Y511665D01*
X720005Y568002D02*
Y576998D01*
X724503D01*
X726003Y575499D01*
Y572500D01*
X724503Y571001D01*
X720005D01*
X730501Y568002D02*
X733501D01*
X735000Y569501D01*
Y572500D01*
X733501Y573999D01*
X730501D01*
X729002Y572500D01*
Y569501D01*
X730501Y568002D01*
X737999Y573999D02*
Y569501D01*
X739499Y568002D01*
X743997D01*
Y573999D01*
X748496Y575499D02*
Y573999D01*
X746996D01*
X749995D01*
X748496D01*
Y569501D01*
X749995Y568002D01*
X72504Y552502D02*
Y562498D01*
X77502D01*
X79169Y560832D01*
Y557500D01*
X77502Y555834D01*
X72504D01*
X82501Y552502D02*
X85833D01*
X84167D01*
Y559166D01*
X82501D01*
X90831Y552502D02*
Y559166D01*
X95830D01*
X97496Y557500D01*
Y552502D01*
X115002Y300834D02*
Y294169D01*
X120000D01*
Y297502D01*
Y294169D01*
X124998D01*
X116668Y304166D02*
X115002Y305832D01*
Y309165D01*
X116668Y310831D01*
X118334D01*
X120000Y309165D01*
Y307498D01*
Y309165D01*
X121666Y310831D01*
X123332D01*
X124998Y309165D01*
Y305832D01*
X123332Y304166D01*
X115002Y575834D02*
Y569169D01*
X120000D01*
Y572502D01*
Y569169D01*
X124998D01*
Y585831D02*
Y579166D01*
X118334Y585831D01*
X116668D01*
X115002Y584165D01*
Y580832D01*
X116668Y579166D01*
X115002Y857500D02*
Y850835D01*
X120000D01*
Y854168D01*
Y850835D01*
X124998D01*
Y860832D02*
Y864165D01*
Y862498D01*
X115002D01*
X116668Y860832D01*
X73334Y125832D02*
X71668Y127498D01*
X68335D01*
X66669Y125832D01*
Y119168D01*
X68335Y117502D01*
X71668D01*
X73334Y119168D01*
X83331Y127498D02*
X76666D01*
Y122500D01*
X79998Y124166D01*
X81664D01*
X83331Y122500D01*
Y119168D01*
X81664Y117502D01*
X78332D01*
X76666Y119168D01*
X73334Y305832D02*
X71668Y307498D01*
X68335D01*
X66669Y305832D01*
Y299168D01*
X68335Y297502D01*
X71668D01*
X73334Y299168D01*
X81664Y297502D02*
Y307498D01*
X76666Y302500D01*
X83331D01*
X73334Y645832D02*
X71668Y647498D01*
X68335D01*
X66669Y645832D01*
Y639168D01*
X68335Y637502D01*
X71668D01*
X73334Y639168D01*
X76666Y645832D02*
X78332Y647498D01*
X81664D01*
X83331Y645832D01*
Y644166D01*
X81664Y642500D01*
X79998D01*
X81664D01*
X83331Y640834D01*
Y639168D01*
X81664Y637502D01*
X78332D01*
X76666Y639168D01*
X732334Y763832D02*
X730668Y765498D01*
X727336D01*
X725669Y763832D01*
Y757168D01*
X727336Y755502D01*
X730668D01*
X732334Y757168D01*
X742331Y755502D02*
X735666D01*
X742331Y762166D01*
Y763832D01*
X740665Y765498D01*
X737332D01*
X735666Y763832D01*
X703000Y843332D02*
X701334Y844998D01*
X698002D01*
X696336Y843332D01*
Y836668D01*
X698002Y835002D01*
X701334D01*
X703000Y836668D01*
X706332Y835002D02*
X709665D01*
X707998D01*
Y844998D01*
X706332Y843332D01*
D12*
X699000Y87500D02*
G03*
X700000Y87500I500J0D01*
G01*
D02*
G03*
X699000Y87500I-500J0D01*
G01*
X213000Y652500D02*
Y930500D01*
Y652500D02*
X682000D01*
Y930500D01*
X213000D02*
X682000D01*
X213000Y630500D02*
X682000D01*
Y352500D02*
Y630500D01*
X213000Y352500D02*
X682000D01*
X213000D02*
Y630500D01*
Y332500D02*
X682000D01*
Y54500D02*
Y332500D01*
X213000Y54500D02*
X682000D01*
X213000D02*
Y332500D01*
X726000Y201500D02*
X751000D01*
X765000Y72500D02*
Y182500D01*
X707000Y72500D02*
Y182500D01*
X721000Y53500D02*
X751000D01*
D13*
X747250Y612000D02*
G03*
X747250Y612000I-1250J0D01*
G01*
D14*
X160000Y92500D02*
X187500D01*
X132500D02*
X160000D01*
X132500D02*
Y302500D01*
X160000D01*
X187500D01*
Y92500D02*
Y302500D01*
X160000D02*
Y318500D01*
Y76500D02*
Y92500D01*
Y387500D02*
X187500D01*
X132500D02*
X160000D01*
X132500D02*
Y597500D01*
X160000D01*
X187500D01*
Y387500D02*
Y597500D01*
X160000D02*
Y613500D01*
Y371500D02*
Y387500D01*
X132500Y892500D02*
X160000D01*
X187500D01*
Y682500D02*
Y892500D01*
X160000Y682500D02*
X187500D01*
X132500D02*
X160000D01*
X132500D02*
Y892500D01*
X160000Y666500D02*
Y682500D01*
Y892500D02*
Y908500D01*
X34000Y441700D02*
Y543300D01*
X106000D01*
X116000D01*
Y441700D02*
Y543300D01*
X106000Y441700D02*
X116000D01*
X34000D02*
X106000D01*
Y543300D01*
X786000Y456700D02*
Y558300D01*
X714000Y456700D02*
X786000D01*
X704000D02*
X714000D01*
X704000D02*
Y558300D01*
X714000D01*
X786000D01*
X714000Y456700D02*
Y558300D01*
D15*
X13500Y886995D02*
Y871000D01*
X24163D01*
X40158Y886995D02*
X29495D01*
Y871000D01*
X40158D01*
X29495Y878997D02*
X34826D01*
X45490Y886995D02*
Y871000D01*
X53487D01*
X56153Y873666D01*
Y884329D01*
X53487Y886995D01*
X45490D01*
X11000Y854495D02*
Y838500D01*
X18997D01*
X21663Y841166D01*
Y851829D01*
X18997Y854495D01*
X11000D01*
X26995Y849163D02*
Y838500D01*
Y843832D01*
X29661Y846497D01*
X32326Y849163D01*
X34992D01*
X42990Y838500D02*
X48321D01*
X45655D01*
Y849163D01*
X42990D01*
X56319D02*
X61650Y838500D01*
X66982Y849163D01*
X80311Y838500D02*
X74979D01*
X72313Y841166D01*
Y846497D01*
X74979Y849163D01*
X80311D01*
X82977Y846497D01*
Y843832D01*
X72313D01*
X88308Y849163D02*
Y838500D01*
Y843832D01*
X90974Y846497D01*
X93640Y849163D01*
X96306D01*
M02*
